<?xml version="1.0" encoding="iso-8859-1"?>
<!-- Generator: Adobe Illustrator 19.1.0, SVG Export Plug-In . SVG Version: 6.00 Build 0)  -->
<svg version="1.1" id="Capa_1" xmlns="http://www.w3.org/2000/svg" xmlns:xlink="http://www.w3.org/1999/xlink" x="0px" y="0px"
	 viewBox="0 0 319.982 319.982" style="enable-background:new 0 0 319.982 319.982;" xml:space="preserve">
<g>
	<path style="fill:#ffffff;" d="M0,234.991c0,2.618,1.078,5.22,2.929,7.071s4.453,2.929,7.071,2.929h140v65
		c0.008,3.922,2.553,7.721,6.176,9.221s8.109,0.61,10.886-2.159l150-150c1.846-1.851,2.92-4.449,2.92-7.062s-1.074-5.212-2.92-7.062
		l-150-150c-2.777-2.769-7.263-3.659-10.886-2.159c-3.624,1.5-6.168,5.299-6.176,9.221v65H10c-2.618,0-5.22,1.078-7.071,2.929
		C1.078,79.772,0,82.373,0,84.991V234.991z"/>
</g>
</svg>
