<?xml version="1.0" encoding="iso-8859-1"?>
<!-- Generator: Adobe Illustrator 19.1.0, SVG Export Plug-In . SVG Version: 6.00 Build 0)  -->
<svg version="1.1" id="Capa_1" xmlns="http://www.w3.org/2000/svg" xmlns:xlink="http://www.w3.org/1999/xlink" x="0px" y="0px"
	 viewBox="0 0 319.982 319.982" style="enable-background:new 0 0 319.982 319.982;" xml:space="preserve">
<g>
	<path style="fill:#ffffff;" d="M319.982,84.991c0-2.618-1.078-5.22-2.929-7.071c-1.851-1.851-4.453-2.929-7.071-2.929h-140v-65
		c-0.008-3.922-2.552-7.721-6.176-9.221c-3.624-1.5-8.109-0.61-10.886,2.159l-150,150C1.074,154.78,0,157.378,0,159.991
		s1.074,5.212,2.92,7.062l150,150c2.777,2.769,7.263,3.659,10.886,2.159c3.624-1.5,6.168-5.299,6.176-9.221v-65h140
		c2.618,0,5.22-1.078,7.071-2.929c1.851-1.851,2.929-4.453,2.929-7.071V84.991z"/>
</g>

</svg>
